<?xml version="1.0" encoding="utf-8"?>
<!-- Svg Vector Icons : http://www.onlinewebfonts.com/icon -->
<!DOCTYPE svg PUBLIC "-//W3C//DTD SVG 1.1//EN" "http://www.w3.org/Graphics/SVG/1.1/DTD/svg11.dtd">
<svg version="1.1" xmlns="http://www.w3.org/2000/svg" xmlns:xlink="http://www.w3.org/1999/xlink" x="0px" y="0px" viewBox="0 0 1000 1000" enable-background="new 0 0 1000 1000" xml:space="preserve">
<metadata> Svg Vector Icons : http://www.onlinewebfonts.com/icon </metadata>
<g><path d="M849.5,990H150.5C73.1,990,10,926.9,10,849.5V150.5C10,73.1,73.1,10,150.5,10h698.9C926.9,10,990,73.1,990,150.5v698.9C990,926.9,926.9,990,849.5,990z M150.5,91.3c-32.6,0-59.2,26.6-59.2,59.2v698.9c0,32.6,26.6,59.2,59.2,59.2h698.9c32.6,0,59.2-26.6,59.2-59.2V150.5c0-32.6-26.6-59.2-59.2-59.2H150.5z M383.6,616.4L228.3,461.2l-77.6,77.6l155.2,155.2l77.6,77.6l77.6-77.6v0l388.1-388.1l-77.6-77.6L383.6,616.4z"/></g>
</svg>