<?xml version="1.0" encoding="utf-8"?>
<!-- Svg Vector Icons : http://www.onlinewebfonts.com/icon -->
<!DOCTYPE svg PUBLIC "-//W3C//DTD SVG 1.1//EN" "http://www.w3.org/Graphics/SVG/1.1/DTD/svg11.dtd">
<svg version="1.1" xmlns="http://www.w3.org/2000/svg" xmlns:xlink="http://www.w3.org/1999/xlink" x="0px" y="0px" fill="white" viewBox="0 0 1000 1000" enable-background="new 0 0 1000 1000" xml:space="preserve">
<metadata> Svg Vector Icons : http://www.onlinewebfonts.com/icon </metadata>
<g><path d="M941,549H59c-27.1,0-49-21.9-49-49c0-27.1,21.9-49,49-49h882c27.1,0,49,21.9,49,49C990,527.1,968.1,549,941,549z M941,157H59c-27.1,0-49-21.9-49-49c0-27.1,21.9-49,49-49h882c27.1,0,49,21.9,49,49C990,135.1,968.1,157,941,157z M59,843h882c27.1,0,49,21.9,49,49c0,27.1-21.9,49-49,49H59c-27.1,0-49-21.9-49-49C10,864.9,31.9,843,59,843z"/></g>
</svg>